<?xml version="1.0" encoding="UTF-8" standalone="no"?>
<!DOCTYPE svg PUBLIC "-//W3C//DTD SVG 1.1//EN" "http://www.w3.org/Graphics/SVG/1.1/DTD/svg11.dtd">
<svg version="1.1" xmlns="http://www.w3.org/2000/svg" xmlns:xlink="http://www.w3.org/1999/xlink" preserveAspectRatio="xMidYMid meet" viewBox="197.43386178612695 191.465245558974 424 413.61496342750655" width="14" height="13.65"><defs><path d="M270.11 556.7C270.25 558.04 270.53 559.36 270.95 560.64C279.19 585.96 302.77 602.08 328.05 602.08C334.21 602.08 340.43 601.12 346.59 599.12C378.03 588.88 395.31 554.96 385.07 523.5C383.97 520.1 378.43 503.09 368.47 472.48L373.69 472.48C467.16 519.22 519.09 545.19 529.47 550.38C532.31 551.78 535.35 552.48 538.41 552.48C542.07 552.48 545.71 551.48 548.91 549.5C554.83 545.86 558.43 539.42 558.43 532.48C558.43 524.2 558.43 457.92 558.43 449.64C592.85 440.7 618.43 409.64 618.43 372.48C618.43 335.32 592.85 304.26 558.43 295.32C558.43 287.04 558.43 220.76 558.43 212.48C558.43 205.54 554.83 199.12 548.93 195.46C543.03 191.8 535.67 191.48 529.47 194.58C519.09 199.77 467.17 225.74 373.71 272.48C328.55 272.48 303.45 272.48 298.43 272.48C243.29 272.48 198.43 317.34 198.43 372.48C198.43 413.9 223.73 449.5 259.69 464.66C261.78 483.07 269.07 547.5 270.11 556.7ZM334.21 561.08C324.23 564.34 313.57 559.3 309.59 549.84C309.01 544.68 306.08 518.9 300.81 472.48L326.39 472.48L347.03 535.88C345.49 550.4 341.21 558.8 334.21 561.08ZM558.43 406.92C558.43 400.03 558.43 344.95 558.43 338.06C570.33 344.98 578.43 357.74 578.43 372.48C578.43 387.22 570.33 399.98 558.43 406.92ZM398.43 440.12L398.43 304.84L518.43 244.84L518.43 500.12L398.43 440.12ZM358.43 312.48L358.43 432.48C322.43 432.48 302.43 432.48 298.43 432.48C265.35 432.48 238.43 405.56 238.43 372.48C238.43 339.4 265.35 312.48 298.43 312.48C306.43 312.48 326.43 312.48 358.43 312.48Z" id="b2DbNoSxCP"></path></defs><g><g><use xlink:href="#b2DbNoSxCP" opacity="1" fill="#133f5d" fill-opacity="1"></use><g><use xlink:href="#b2DbNoSxCP" opacity="1" fill-opacity="0" stroke="#000000" stroke-width="0" stroke-opacity="0"></use></g></g></g></svg>