<svg width="17" height="16" viewBox="0 0 17 16" fill="none" xmlns="http://www.w3.org/2000/svg">
<path d="M4.66675 1.33337L2.66675 4.00004V13.3334C2.66675 13.687 2.80722 14.0261 3.05727 14.2762C3.30732 14.5262 3.64646 14.6667 4.00008 14.6667H13.3334C13.687 14.6667 14.0262 14.5262 14.2762 14.2762C14.5263 14.0261 14.6667 13.687 14.6667 13.3334V4.00004L12.6667 1.33337H4.66675Z" stroke="#4195D5" stroke-width="1.33333" stroke-linecap="round" stroke-linejoin="round"/>
<path d="M2.66675 4H14.6667" stroke="#4195D5" stroke-width="1.33333" stroke-linecap="round" stroke-linejoin="round"/>
<path d="M11.3333 6.66663C11.3333 7.37387 11.0524 8.05215 10.5523 8.55224C10.0522 9.05234 9.37391 9.33329 8.66667 9.33329C7.95942 9.33329 7.28115 9.05234 6.78105 8.55224C6.28095 8.05215 6 7.37387 6 6.66663" stroke="#4195D5" stroke-width="1.33333" stroke-linecap="round" stroke-linejoin="round"/>
</svg>
