<?xml version="1.0" encoding="UTF-8" standalone="no"?>
<!DOCTYPE svg PUBLIC "-//W3C//DTD SVG 1.1//EN" "http://www.w3.org/Graphics/SVG/1.1/DTD/svg11.dtd">
<svg version="1.1" xmlns="http://www.w3.org/2000/svg" xmlns:xlink="http://www.w3.org/1999/xlink" preserveAspectRatio="xMidYMid meet" viewBox="115.70658905885408 54.68736554581625 231.52348603365044 229.65851438162645" width="14" height="13.88"><defs><path d="M126.53 230.09C134.61 210.47 155 191.11 159.29 172.93C173.62 112.22 179 64.69 231.45 64.69C284.23 64.69 289.45 111.41 303.61 172.93C307.77 190.97 328.33 210.29 336.42 230.09C339.64 237.99 332.78 245.09 324.23 245.09C287.13 245.09 157.22 245.09 138.67 245.09C130.13 245.09 123.27 237.99 126.53 230.09Z" id="e2UmJIbb52"></path><path d="M126.53 230.09C134.61 210.47 155 191.11 159.29 172.93C173.62 112.22 179 64.69 231.45 64.69C284.23 64.69 289.45 111.41 303.61 172.93C307.77 190.97 328.33 210.29 336.42 230.09C339.64 237.99 332.78 245.09 324.23 245.09C287.13 245.09 157.22 245.09 138.67 245.09C130.13 245.09 123.27 237.99 126.53 230.09Z" id="d7dbMDFIv"></path><path d="M255.46 250.35C255.46 263.6 244.72 274.35 231.46 274.35C218.21 274.35 207.47 263.6 207.47 250.35" id="g2zcK4UmxD"></path><path d="M255.46 250.35C255.46 263.6 244.72 274.35 231.46 274.35C218.21 274.35 207.47 263.6 207.47 250.35" id="bCTgemWcI"></path></defs><g><g><use xlink:href="#e2UmJIbb52" opacity="1" fill="#000000" fill-opacity="0"></use><g><use xlink:href="#e2UmJIbb52" opacity="1" fill-opacity="0" stroke="#000000" stroke-width="20" stroke-opacity="0"></use></g></g><g><use xlink:href="#d7dbMDFIv" opacity="1" fill="#000000" fill-opacity="0"></use><g><use xlink:href="#d7dbMDFIv" opacity="1" fill-opacity="0" stroke="#133f5d" stroke-width="20" stroke-opacity="1"></use></g></g><g><use xlink:href="#g2zcK4UmxD" opacity="1" fill="#000000" fill-opacity="0"></use><g><use xlink:href="#g2zcK4UmxD" opacity="1" fill-opacity="0" stroke="#000000" stroke-width="20" stroke-opacity="0"></use></g></g><g><use xlink:href="#bCTgemWcI" opacity="1" fill="#000000" fill-opacity="0"></use><g><use xlink:href="#bCTgemWcI" opacity="1" fill-opacity="0" stroke="#133f5d" stroke-width="20" stroke-opacity="1"></use></g></g></g></svg>